<svg width="215" height="226" viewBox="0 0 215 226" fill="none" xmlns="http://www.w3.org/2000/svg">
<path fill-rule="evenodd" clip-rule="evenodd" d="M202.632 50.6589H203.468C203.746 51.4858 204.024 52.3128 204.303 53.1397H204.72C204.86 53.9667 204.999 54.7936 205.138 55.6206H205.556V56.4475H205.973V58.1014H206.391V58.9284H206.809V60.5823H207.226V61.4092H207.644V63.0631H208.061V63.8901H208.479V66.3709H208.897V67.1979H209.314V68.8518H209.732V70.5057H210.15V72.9865H210.567V74.227H210.985V77.1213H211.402V78.3617H211.82V82.083H212.238V83.7369H212.655V86.6312H213.073V89.939H213.491V95.3142H213.908C214.047 97.1059 214.187 98.8976 214.326 100.689V114.334H214.743C215.449 116.838 214.493 120.676 214.326 122.604C213.829 128.325 214.813 134.496 213.491 139.143C213.212 143.691 212.934 148.239 212.655 152.787H212.238V155.682H211.82V159.403H211.402V161.47H210.985V165.191C209.52 170.124 209.147 176.502 207.644 181.317V183.798H207.226V185.452H206.809V187.933H206.391C206.252 189.311 206.113 190.689 205.973 192.067H205.556V193.721H205.138V196.202H204.72V197.029H204.303V199.923H203.885V201.164H203.468V203.645H203.05V204.885H202.632V206.126H202.215V207.366H201.797V208.606H201.379C201.24 209.158 201.101 209.709 200.962 210.26H200.544C200.405 210.812 200.266 211.363 200.127 211.914L199.291 212.328V213.155L198.456 213.568L195.115 217.289H193.862L193.027 218.53H191.774C191.635 218.805 191.496 219.081 191.356 219.357H190.103V219.77H189.268V220.184H187.18V220.597H185.927V221.011H183.004V221.424H182.169V221.838H178.827V222.251H177.575V222.665L165.046 223.491V223.905H162.54V224.318L156.693 224.732V225.145H152.099C150.88 225.482 145.971 226.096 144.164 225.559C143.124 225.249 142.008 224.569 140.823 224.318V223.491H139.988V222.665H139.153L136.647 215.222V211.914H136.229V208.193H135.812C135.673 202.68 135.533 197.167 135.394 191.654H134.977V187.519C134.977 184.081 134.612 179.516 135.394 176.769V171.394H135.812V166.432H136.229V163.951H136.647V160.23H137.065V158.162H137.482V155.682H137.9C138.039 154.303 138.178 152.925 138.318 151.547H138.735V149.893H139.153V148.239H139.57V146.585H139.988V144.518H140.406V143.277H140.823V141.623H141.241V140.796H141.659V139.143H142.076V137.489H142.494V136.248H142.911V135.008H143.329V133.767H143.747V132.527H144.164C144.304 131.976 144.443 131.424 144.582 130.873H145V129.219H145.417V128.392H145.835C145.974 127.565 146.113 126.738 146.253 125.911H146.67C146.809 125.36 146.949 124.809 147.088 124.257H147.505V123.017L148.341 122.604V120.95H148.758C149.037 120.123 149.315 119.296 149.594 118.469H150.011V117.228L150.846 116.815V115.574L151.682 115.161C152.239 113.507 152.795 111.853 153.352 110.199H153.77C153.909 109.786 154.048 109.372 154.187 108.959L155.023 108.545V107.305H155.44V106.478H155.858V105.651L156.693 105.238V104.411H157.111V103.584H157.528V102.757L158.364 101.93V101.103H158.781C158.921 100.689 159.06 100.276 159.199 99.8624L160.034 99.4489V98.622H160.452V97.795L161.287 96.9681V96.1411L162.54 95.3142C162.818 94.4872 163.097 93.6603 163.375 92.8333L164.211 92.4199V91.5929L165.046 91.1794V90.3525L165.881 89.939V89.1121L166.716 88.6986V87.8716H167.134C167.521 87.306 167.417 87.1423 167.552 86.2177H168.387C168.569 85.2935 169.002 84.4358 169.64 83.7369H170.057V82.9099H170.475C170.614 82.4965 170.753 82.083 170.893 81.6695L171.728 81.256V80.4291L172.981 79.6021V78.7752L174.234 77.9482V77.1213L175.069 76.7078V75.8809H175.486C175.626 75.4674 175.765 75.0539 175.904 74.6404H176.739C177.047 73.554 177.621 72.5598 178.41 71.7461L179.245 71.3326V70.5057L180.498 69.6787V68.8518L182.169 67.6114V66.7844L183.004 66.3709V65.9575L183.839 65.544V64.717H184.257C184.686 64.254 184.975 63.6809 185.092 63.0631H185.927C186.397 61.2496 187.926 60.7439 188.433 58.9284H189.268V58.1014H190.103C190.68 55.8935 192.854 55.2274 193.444 53.1397H194.28C194.398 52.5249 194.7 51.9595 195.146 51.517C195.593 51.0745 196.165 50.7755 196.785 50.6589V49.8319H197.621C197.76 49.5563 197.899 49.2806 198.038 49.005H201.797C202.192 49.7492 202.375 49.6558 202.632 50.6589Z" fill="#F38532"/>
<path fill-rule="evenodd" clip-rule="evenodd" d="M89.4551 148.239V149.066C91.451 149.627 92.3397 151.508 93.6314 152.787L100.313 158.989V159.816L102.402 161.47V162.297L104.49 163.951V164.778L105.743 165.605C105.882 166.018 106.021 166.432 106.16 166.845L106.995 167.259V168.086H107.413C107.552 168.499 107.692 168.913 107.831 169.326L108.666 169.74V170.567L109.919 171.394C110.058 171.945 110.197 172.496 110.337 173.048L111.172 173.461C111.311 173.874 111.45 174.288 111.589 174.701H112.007C112.146 175.253 112.285 175.804 112.425 176.355L113.26 176.769C113.538 177.596 113.817 178.423 114.095 179.25L114.93 179.663C115.209 180.49 115.487 181.317 115.766 182.144H116.183V182.971H116.601V183.798H117.019C117.297 184.625 117.575 185.452 117.854 186.279H118.271V187.519H118.689V188.346H119.107V189.587H119.524C119.664 190.138 119.803 190.689 119.942 191.24H120.36C120.499 192.067 120.638 192.894 120.777 193.721H121.195V194.548H121.612C121.891 195.926 122.169 197.305 122.448 198.683H122.865V199.923H123.283V201.164H123.701V202.818H124.118V204.472H124.536V206.126H124.953V208.193H125.371C125.51 209.709 125.65 211.225 125.789 212.741C126.158 213.988 127.221 219.109 126.624 221.011H126.206C126.067 221.7 125.928 222.389 125.789 223.078C124.187 224.029 124.333 225.081 121.612 225.145C120.906 225.766 119.184 225.559 117.854 225.559H86.1141V225.145H81.5202L72.3324 224.732V224.318L56.0449 223.491V223.078H53.5391V222.665H50.6157V222.251L46.8571 221.838V221.424L43.9337 221.011V220.597H42.6808V220.184H41.4279V219.77H40.5926V219.357H39.3398V218.943L36.834 218.116V217.703H35.9987V217.289L34.3282 216.876L33.9106 216.049H33.0753V215.635L31.8225 215.222L31.4048 214.395H30.5696L29.3167 212.741H28.4814L26.3933 210.26L23.4699 207.779L23.0523 206.539L21.3818 205.299L20.9641 203.645L20.1289 203.231L19.7113 201.991H19.2936L18.876 200.337H18.4584L17.6231 197.856H17.2055V196.616H16.7879V195.789H16.3702V194.548H15.9526V193.721H15.535V192.067H15.1173V190.827H14.6997V188.76H14.2821V187.106H13.8645V185.038H13.4468V182.144H13.0292V177.182H12.6116C12.7508 164.502 12.89 151.822 13.0292 139.143H12.6116V135.835H12.1939V132.527C11.3136 129.55 10.5481 126.938 10.5234 123.017C11.3286 122.545 12.0854 121.667 13.0292 121.363H18.876C23.8545 121.363 29.5293 121.469 33.493 122.604H36.834V123.017H38.5045V123.431L42.2632 123.844V124.257H44.3513V124.671H45.6042V125.084H47.2747V125.498H48.1099V125.911L52.2862 126.738V127.152H53.1215V127.565H54.792V127.979L56.8801 128.392V128.806H57.7154V129.219H58.9683L59.3859 130.046H60.6388V130.46H61.474V130.873H62.7269L63.1446 131.7H64.3974L64.8151 132.527H66.0679L66.4856 133.354H67.3208V133.767H68.1561V134.181H68.9913L69.8266 135.008H70.6619V135.421L71.9147 135.835L72.3324 136.662L74.8381 137.489V137.902L76.091 138.316C76.2302 138.591 76.3694 138.867 76.5086 139.143H77.3439V139.556L78.5968 139.97C78.736 140.245 78.8752 140.521 79.0144 140.796H79.8497L80.6849 142.037H81.5202L82.3554 143.277H83.1907L84.4436 144.931H85.2788C85.418 145.207 85.5573 145.483 85.6965 145.758L86.9493 146.585V146.999H87.7846V147.412C88.2534 147.836 88.8317 148.122 89.4551 148.239Z" fill="#33B450"/>
<path fill-rule="evenodd" clip-rule="evenodd" d="M186.345 42.3894V43.2164H185.51V44.0433C183.523 44.5639 183.746 45.9738 181.751 46.5242C181.409 47.8754 176.433 52.7912 175.069 53.1398C174.93 53.6911 174.79 54.2424 174.651 54.7937H173.816V55.6206H172.981C172.6 57.0322 170.238 59.1054 169.222 60.1688L168.387 60.5823V61.4093C167.609 62.4769 166.8 62.1006 166.299 63.8901H165.463C165.125 65.2451 164.158 65.8483 163.375 66.7844H162.958V67.6114L162.122 68.0249V68.8518L160.034 70.5057V71.3327L158.781 72.1596V72.9866L157.528 73.8135V74.6405L156.276 75.4674V76.2944L155.023 77.1213V77.9483H154.605C154.466 78.3617 154.327 78.7752 154.187 79.1887L153.352 79.6022V80.4291L152.099 81.2561C151.96 81.8074 151.821 82.3587 151.682 82.91L150.429 83.7369C150.29 84.2882 150.15 84.8395 150.011 85.3908L148.758 86.2178C148.48 87.0447 148.201 87.8717 147.923 88.6986H147.505C147.366 89.1121 147.227 89.5256 147.088 89.939L146.252 90.3525V91.1795L145.417 92.0064V92.8334L144.582 93.2468C144.443 93.7981 144.304 94.3494 144.164 94.9007L143.329 95.3142V96.1412H142.911V96.9681H142.494V97.7951L141.659 98.622V99.449L140.823 99.8624C140.545 100.689 140.266 101.516 139.988 102.343L139.153 102.757V103.997H138.735V104.824H138.318V105.651H137.9V106.478H137.482V107.305H137.065V108.132H136.647V108.959H136.229V109.786H135.812V110.613H135.394V111.44H134.977V112.68L134.141 113.094V114.334H133.724V115.161H133.306V115.988H132.888V116.815H132.471C132.192 117.642 131.914 118.469 131.636 119.296H131.218V120.536H130.8C130.661 121.087 130.522 121.639 130.383 122.19H129.965L128.712 125.911H128.294V127.152H127.877V127.979H127.459V129.219H127.042V130.046H126.624C126.485 130.597 126.346 131.149 126.206 131.7H125.789C125.65 132.527 125.51 133.354 125.371 134.181H124.953C124.814 134.732 124.675 135.283 124.536 135.835H124.118C123.979 136.524 123.84 137.213 123.701 137.902H123.283V139.143H122.865V139.97H122.448V141.21H122.03V142.45H121.612V143.277H121.195C120.499 145.345 119.803 147.412 119.107 149.479C116.414 148.766 115.946 145.669 113.26 144.931V144.104H112.425V143.277H111.589V142.45H110.754V142.037L108.248 139.97V139.143C107.104 138.876 107.298 138.601 106.16 138.316V137.489C104.795 137.14 104.181 136.204 103.237 135.421V135.008L101.984 134.594L101.149 133.354H100.313L99.0605 131.7H98.2253L96.9724 130.046H96.1371L95.3019 128.806H94.4666C94.3274 128.53 94.1882 128.254 94.049 127.979H93.2137C93.0745 127.703 92.9353 127.427 92.7961 127.152L91.5432 126.738V126.325L89.8727 125.911L89.0375 124.671H88.2022L87.367 123.844H86.5317V123.431H85.6964C84.3016 122.689 83.2103 121.398 81.5202 120.95C81.381 120.398 81.2417 119.847 81.1025 119.296H80.6849C80.5953 119.073 80.5881 118.827 80.6645 118.6C80.741 118.373 80.8961 118.18 81.1025 118.055V116.815L82.3554 115.988V115.161L88.6198 109.372V108.545L89.8727 107.718V106.892L91.1256 106.065V105.238L92.3785 104.411C92.5177 103.859 92.6569 103.308 92.7961 102.757L93.6314 102.343C93.7706 101.792 93.9098 101.241 94.049 100.689L94.8843 100.276C95.0235 99.7246 95.1627 99.1733 95.3019 98.622H95.7195C95.9979 97.7951 96.2763 96.9681 96.5548 96.1412H96.9724V94.9007H97.39V94.0738H97.8077V92.8334H98.2253V92.0064H98.6429C98.7821 91.1795 98.9213 90.3525 99.0605 89.5256H99.4782V88.2851H99.8958V87.0447H100.313V85.8043H100.731V84.1504H101.149V82.4965H101.566V80.4291H101.984V79.6022H102.402V76.7078H102.819V74.6405H103.237V71.3327H103.654V66.7844H104.072V59.7554H103.654V56.0341H103.237V53.1398H102.819V51.4859H102.402V49.832H101.984C101.845 48.7294 101.706 47.6268 101.566 46.5242H101.149C101.009 45.835 100.87 45.1459 100.731 44.4568H100.313V43.6298H99.8958V42.3894H99.4782C99.339 41.8381 99.1997 41.2868 99.0605 40.7355H98.6429C98.5037 40.1842 98.3645 39.6329 98.2253 39.0816L97.39 38.6681V37.8412L96.5548 37.4277C96.4156 36.8764 96.2763 36.3251 96.1371 35.7738L94.8843 34.9469V34.1199L93.6314 33.293V32.466L89.8727 29.1582L87.7846 26.6774H86.9493C86.8101 26.4017 86.6709 26.1261 86.5317 25.8504L85.2788 25.4369V25.0235H84.4436C84.3043 24.7478 84.1651 24.4722 84.0259 24.1965H83.1907C83.0515 23.9209 82.9123 23.6452 82.773 23.3696H81.9378C81.7986 23.0939 81.6594 22.8183 81.5202 22.5426L79.0144 21.7157C78.8752 21.44 78.736 21.1644 78.5968 20.8887H77.3439V20.4752H76.5086V20.0618H75.2557C75.1165 19.7861 74.9773 19.5105 74.8381 19.2348H73.1676V18.8213H72.3323V18.4079H70.6618V17.9944H69.8266V17.5809H68.1561V17.1674H66.9032V16.754H64.3974V16.3405H63.1445V15.927H61.0564V15.5135L51.8686 15.1001V14.6866H37.6692V15.1001H28.4814C28.6206 14.4109 28.7598 13.7218 28.899 13.0327L28.0638 12.6192V10.9653L39.7574 9.72489V9.31141H42.6808V8.89794H45.1865V8.48446H48.1099V8.07099H49.7804V7.65751H52.7038C57.3996 6.21862 63.4786 5.77413 68.1561 4.34971L74.0029 3.93624V3.52276H76.091V3.10929H79.0144V2.69581H81.5202V2.28234H84.0259V1.86886H87.7846C95.225 -0.224148 105.937 0.217444 115.348 0.214963C120.049 0.214963 126.435 -0.479675 130.383 0.628438C132.91 1.33796 136.878 0.401853 139.153 1.04191H144.582V1.45539H148.341V1.86886H152.099C155.855 2.95051 160.613 3.23333 164.21 4.34971H166.299V4.76319H167.969V5.17666H170.057L180.08 8.48446V8.89794H180.916V9.31141H182.168C182.308 9.58706 182.447 9.86271 182.586 10.1384H183.839C183.978 10.414 184.117 10.6897 184.257 10.9653H185.51C185.649 11.241 185.788 11.5166 185.927 11.7923H186.762C186.902 12.0679 187.041 12.3436 187.18 12.6192H188.015C188.154 12.8949 188.294 13.1705 188.433 13.4462H189.268L190.103 14.6866H190.939L192.609 16.754C196.504 19.547 198.951 21.5217 198.874 28.3313H198.456V29.5717L197.621 29.9852V31.2256L196.785 31.6391V32.466C194.922 35.1391 191.989 37.2156 189.686 39.4951C188.6 40.5701 188.082 41.9321 186.345 42.3894Z" fill="#147FC3"/>
<path fill-rule="evenodd" clip-rule="evenodd" d="M68.1561 33.2929V34.1199L69.409 34.5334V34.9468H70.2442L70.6618 35.7738H71.4971L71.9147 36.6007H72.75V37.0142C73.7134 37.8068 74.3006 38.6987 75.6734 39.0816V39.9085H76.5086V40.7355H77.3439C77.7076 42.1529 78.2075 41.8002 78.5968 43.2163H79.432C79.6269 44.1363 80.0585 44.9909 80.6849 45.6972H81.1025C81.381 46.5241 81.6594 47.3511 81.9378 48.178H82.3554C82.6338 49.005 82.9123 49.8319 83.1907 50.6589H83.6083V51.4858H84.0259C84.1651 52.4506 84.3044 53.4154 84.4436 54.3802H84.8612V56.4475H85.2788V57.2745H85.6964V61.4092C86.9736 65.955 85.6397 73.9297 84.4436 77.5348C84.3044 78.4995 84.1651 79.4643 84.0259 80.4291H83.6083V81.256H83.1907C82.9123 82.4965 82.6338 83.7369 82.3554 84.9773H81.9378C81.6594 85.8043 81.381 86.6312 81.1025 87.4582H80.6849V88.2851L79.8497 88.6986C79.5712 89.5255 79.2928 90.3525 79.0144 91.1794H78.1791C77.9007 92.0064 77.6223 92.8333 77.3439 93.6603H76.5086C75.9774 95.8554 73.8145 97.2935 72.3324 98.622L71.9147 99.449H71.0795V100.276C69.9356 100.542 70.1289 100.817 68.9913 101.103V101.93C67.6487 102.248 68.0913 102.553 66.4856 102.757V103.584H65.2327V104.411C64.2918 104.526 64.136 104.452 63.5622 104.824V105.238H62.7269V105.651H61.8917V106.065H60.6388V106.478H59.8035V106.892H58.9683V107.305H58.133V107.718H56.4625L56.0449 108.545H53.5391V108.959H52.2862V109.372L48.5276 109.786V110.199H43.0984V110.613H37.2516V110.199H30.1519V109.786H28.0638V109.372H24.7228V108.959H23.8875V108.545H21.3817V107.718H19.2936L18.876 106.892H17.2055L16.7878 106.065H15.9526C14.9544 105.513 14.3305 104.761 13.0292 104.411V103.584H11.7763V102.757H10.941V101.93C8.86668 101.374 8.66497 99.719 7.60002 98.2085L6.34713 97.3816V96.1412L5.51188 95.7277V94.4873L4.67662 94.0738V93.2468H4.25899C4.11978 92.282 3.98057 91.3173 3.84136 90.3525H3.42374V89.5255H3.00611V87.8716H2.58848V86.2177H2.17085V83.7369H1.75322V81.256H1.3356V72.9865H0.917969V66.3709H1.3356V62.2362C1.61402 59.204 1.89243 56.1719 2.17085 53.1397H2.58848V51.4858H3.00611V49.005H3.42374V48.178H3.84136V46.5241H4.25899L4.67662 44.4568H5.09425C5.47763 43.8279 5.43712 43.4479 5.51188 42.3894H6.34713C6.50583 40.9253 6.86541 41.1341 7.18239 39.9085H8.01764C8.17634 38.4444 8.53592 38.6532 8.8529 37.4277H9.68816V36.6007H10.5234V35.7738H11.3587V34.9468C12.5026 34.6806 12.3092 34.4056 13.4468 34.1199V33.2929H14.6997V32.466C15.6402 32.3419 15.7939 32.4246 16.3702 32.0525V31.639H17.2055V31.2256H18.0407V30.8121H19.7112L20.1289 29.9851L25.1404 29.1582C29.7343 27.6478 35.5736 27.5043 41.8455 27.5043H48.5276V27.9178L53.5391 28.3312V28.7447H55.2096V29.1582H57.7154V29.5717H58.5506V29.9851H60.2211V30.3986H61.0564V30.8121H62.7269L63.1445 31.639H64.3974L64.815 32.466H66.0679V32.8795C66.6998 33.2619 67.089 33.2218 68.1561 33.2929Z" fill="#F38532"/>
</svg>
